# xmcd
#
# Track frame offsets: 
#        150
#        20298
#        37825
#        54192
#        69236
#        89857
#        109863
#        134944
#        151710
#        162641
#        181167
#        201416
#
# Disc length: 3064 seconds
#
# Revision: 0
# Processed by: cddbd v1.5.2PL0 Copyright (c) Steve Scherf et al.
# Submitted via: ExactAudioCopy v1.0b3
#
DISCID=a10bf60c
DTITLE=Rayland Baxter - Feathers and Fishhooks
DYEAR=2012
DGENRE=Folk/Rock
TTITLE0=The Mtn Song
TTITLE1=Olivia
TTITLE2=Marjoria
TTITLE3=Tell Me Lover
TTITLE4=The Woman For Me
TTITLE5=Good Friend
TTITLE6=Dreamin
TTITLE7=Willy's Song
TTITLE8=Driveway Melody
TTITLE9=Hoot Owl
TTITLE10=Trouble
TTITLE11=Willow
EXTD=
EXTT0=
EXTT1=
EXTT2=
EXTT3=
EXTT4=
EXTT5=
EXTT6=
EXTT7=
EXTT8=
EXTT9=
EXTT10=
EXTT11=
PLAYORDER=
